HIERARCHY
ROOT Bip001
{
 OFFSET 0.000000 0.000000 0.000000
 CHANNELS 6 Xposition Yposition Zposition Xrotation Yrotation Zrotation
 JOINT Bip001_Pelvis
 {
  OFFSET -0.041037 -0.005508 0.164154
  CHANNELS 3 Xrotation Yrotation Zrotation
  JOINT Bip001_Spine
  {
   OFFSET 0.044300 0.005946 0.077000
   CHANNELS 3 Xrotation Yrotation Zrotation
   JOINT Bip001_Spine1
   {
    OFFSET -0.000001 -0.000000 0.153780
    CHANNELS 3 Xrotation Yrotation Zrotation
    JOINT Bip001_Spine2
    {
     OFFSET 0.018201 0.002443 0.152706
     CHANNELS 3 Xrotation Yrotation Zrotation
     JOINT Bip001_Neck
     {
      OFFSET -0.043344 -0.005818 0.211513
      CHANNELS 3 Xrotation Yrotation Zrotation
      JOINT Bip001_Head
      {
       OFFSET -0.023929 -0.003212 0.056390
       CHANNELS 3 Xrotation Yrotation Zrotation
       End Site
       {
        OFFSET 0.000000 0.000000 0.000000
       }
      }
     }
     JOINT Bip001_L_Clavicle
     {
      OFFSET -0.029718 -0.053419 0.132514
      CHANNELS 3 Xrotation Yrotation Zrotation
      JOINT Bip001_L_UpperArm
      {
       OFFSET 0.024789 -0.162222 -0.026916
       CHANNELS 3 Xrotation Yrotation Zrotation
       JOINT Bip001_L_Forearm
       {
        OFFSET -0.026577 -0.286863 -0.153731
        CHANNELS 3 Xrotation Yrotation Zrotation
        JOINT Bip001_L_Hand
        {
         OFFSET -0.089077 -0.239781 -0.130038
         CHANNELS 3 Xrotation Yrotation Zrotation
         End Site
         {
          OFFSET 0.000000 0.000000 0.000000
         }
        }
       }
      }
     }
     JOINT Bip001_R_Clavicle
     {
      OFFSET -0.042752 0.043692 0.132514
      CHANNELS 3 Xrotation Yrotation Zrotation
      JOINT Bip001_R_UpperArm
      {
       OFFSET -0.018865 0.163017 -0.026916
       CHANNELS 3 Xrotation Yrotation Zrotation
       JOINT Bip001_R_Forearm
       {
        OFFSET -0.101279 0.269702 -0.153731
        CHANNELS 3 Xrotation Yrotation Zrotation
        JOINT Bip001_R_Hand
        {
         OFFSET -0.149152 0.207806 -0.130038
         CHANNELS 3 Xrotation Yrotation Zrotation
         End Site
         {
          OFFSET 0.000000 0.000000 0.000000
         }
        }
       }
      }
     }
    }
   }
  }
  JOINT Bip001_L_Thigh
  {
   OFFSET 0.011035 -0.082219 0.000000
   CHANNELS 3 Xrotation Yrotation Zrotation
   JOINT Bip001_L_Calf
   {
    OFFSET 0.010188 -0.013597 -0.536358
    CHANNELS 3 Xrotation Yrotation Zrotation
    JOINT Bip001_L_Foot
    {
     OFFSET 0.072725 0.000243 -0.475449
     CHANNELS 3 Xrotation Yrotation Zrotation
     End Site
     {
      OFFSET 0.000000 0.000000 0.000000
     }
    }
   }
  }
  JOINT Bip001_R_Thigh
  {
   OFFSET -0.011035 0.082219 0.000000
   CHANNELS 3 Xrotation Yrotation Zrotation
   JOINT Bip001_R_Calf
   {
    OFFSET 0.006242 0.015802 -0.536358
    CHANNELS 3 Xrotation Yrotation Zrotation
    JOINT Bip001_R_Foot
    {
     OFFSET 0.070215 0.018943 -0.475449
     CHANNELS 3 Xrotation Yrotation Zrotation
     End Site
     {
      OFFSET 0.000000 0.000000 0.000000
     }
    }
   }
  }
 }
}
MOTION
Frames: 9
Frame Time: 0.033333
0.000000 0.608640 0.000000 -90.094038 -0.628053 42.691024 18.954588 -6.518274 76.786809 4.596026 -24.007664 1.219341 1.194290 -5.918812 0.258111 0.440306 -2.398764 -0.016930 -12.246589 15.842707 1.453060 -7.736420 5.687220 -40.785014 -7.119973 -0.666704 -3.070656 54.495764 45.013920 -22.607821 30.924839 26.800394 -93.870234 -56.303421 -26.735002 -29.236101 15.782117 1.935295 0.297875 -68.337491 -13.661103 -22.310781 -20.501316 19.390381 58.042544 17.218066 22.912870 11.217334 -10.958077 54.820771 1.030693 30.964009 -67.030706 22.954649 -5.817168 24.193911 -1.953494 7.068585 24.958509 11.357485 20.049138 -81.330680 14.432944 0.193478 -15.915670 4.805802
0.000000 0.588436 0.000000 -88.819275 1.099966 131.783230 18.942097 -6.343723 76.813962 3.009039 -22.951955 -2.209502 0.568414 -5.750229 -2.820761 0.380291 -2.288117 -2.790718 -12.467555 16.037435 1.581449 -9.418901 3.787821 -37.191040 -10.295066 -0.724150 -4.675826 46.504779 42.367668 -25.134745 27.292995 26.975308 -85.835222 -68.512122 -25.706843 -43.090189 16.460903 2.010990 0.119130 -69.065718 -15.830581 -29.799628 -16.298415 17.499453 48.481441 17.940498 20.520257 12.176911 -6.419816 46.454814 -2.958757 32.268286 -67.807271 24.191693 -3.483331 34.682348 -8.031277 4.008227 37.170944 4.537745 158.127980 -83.064830 151.691238 1.080796 -13.517921 -2.551262
-0.169692 0.590365 0.026792 -88.282992 1.854842 133.867722 18.792215 -6.106810 77.089010 1.049169 -22.521958 -5.471489 0.035509 -5.714355 -5.410382 0.220109 -2.273697 -5.371824 -13.472411 16.661869 1.892849 -8.978917 3.118351 -32.475408 -11.018044 -0.836422 -4.596829 36.062260 38.970500 -24.005310 18.135155 25.272656 -66.122810 -64.216041 -19.882357 -42.593123 18.018722 2.256767 -0.131932 -69.512361 -17.564328 -34.272442 -13.599435 16.326542 42.763309 19.119606 19.833408 10.069279 -3.707769 35.486698 -5.026710 25.701132 -63.267156 17.928248 1.747363 35.069794 -14.076958 -0.691621 50.195150 2.854569 167.592828 -78.477488 161.088631 1.855353 -8.169383 -2.247451
-0.270885 0.606048 -0.107080 -89.126916 1.745029 134.663191 18.880690 -6.085212 76.942644 -2.113628 -22.265242 -8.529062 -0.725799 -5.596110 -7.585590 -0.059002 -2.246873 -7.494078 -13.859146 16.345725 1.960375 -8.383771 1.989732 -26.124086 -9.911897 -0.933829 -4.361885 28.230222 37.233688 -25.336573 7.475613 18.321714 -39.722961 -52.117152 -24.957701 -34.739066 19.210808 2.656381 0.242124 -69.773015 -19.695638 -37.866463 -12.876096 15.602226 41.681678 16.368784 19.893277 9.721009 -4.046563 22.630313 -5.721133 16.567596 -52.617458 9.749258 6.769563 27.039709 -19.133388 -7.002009 59.252208 4.316783 161.248607 -81.796313 154.884081 0.457048 -1.670022 0.457495
-0.408987 0.636772 -0.197054 -92.660829 -0.293725 132.992519 18.663045 -6.007988 76.450023 -6.325492 -22.194160 -10.779330 -1.693442 -5.511967 -8.590205 -0.432434 -2.265111 -8.509054 -13.364407 16.118490 1.866174 -7.292783 0.311848 -17.568012 -7.284830 -0.510465 -5.065383 23.734750 36.456547 -26.507416 0.828295 7.550993 -14.337089 -31.864899 -33.676948 -14.728824 19.759223 3.166084 1.347662 -69.956548 -22.084672 -39.681836 -13.910933 15.446187 43.761675 15.940765 17.783773 13.252494 -6.540609 7.603111 -3.580279 8.689703 -33.456471 3.382927 10.768560 8.377567 -22.164977 -16.996858 63.325880 9.558472 32.250937 -84.049713 25.991060 -1.428047 3.249861 3.138010
-0.538189 0.668442 -0.096688 -95.314101 -0.143579 130.640282 18.610874 -5.966520 76.623898 -9.601315 -21.396334 -12.642607 -2.524339 -5.292628 -9.536168 -0.743117 -2.225381 -9.563710 -13.518538 15.470284 1.687670 -5.212801 -1.207644 -6.697487 -4.643152 -0.209070 -6.089648 20.495142 34.609031 -22.375192 -0.524325 -1.462655 2.669363 -18.971167 -9.208188 8.521573 19.484953 3.589730 2.440963 -68.325180 -24.335614 -38.047672 -14.805548 15.358372 45.334233 14.562909 16.788130 13.375658 -6.122317 4.634182 -1.503233 9.259931 -33.315249 3.379007 -1.086114 -15.130439 -17.069940 -24.685781 64.986517 13.391539 9.456430 -65.935959 3.228152 -4.128049 5.777538 4.740516
-0.621385 0.680800 -0.245021 -96.395745 0.139675 127.471559 18.726968 -6.050124 76.370423 -10.795805 -21.038653 -13.275549 -2.861771 -5.164416 -9.823966 -0.883374 -2.198154 -9.740412 -13.528528 15.208337 1.619265 -4.347480 -1.677457 -1.935357 -3.391357 -0.245673 -6.263291 21.099481 34.311788 -20.876214 -0.200066 -6.171541 11.531492 -13.601771 6.737743 18.227259 18.715978 3.609251 2.662499 -66.812749 -24.908078 -36.783532 -15.199325 15.379086 46.241776 13.602763 17.541320 12.552344 -11.207110 11.901131 -0.917684 14.607107 -46.259490 7.092851 11.812948 -5.924995 -25.577704 -27.604130 65.298784 13.873400 7.974576 -54.979693 1.282770 -6.160427 6.574620 5.307652
-0.748787 0.682838 -0.368926 -95.641025 -0.550249 123.648660 18.942402 -6.116251 75.486890 -10.581185 -21.732696 -13.201320 -2.781339 -5.350175 -9.609951 -0.852904 -2.286869 -9.493533 -13.234073 14.671262 1.477559 -2.707505 -0.517197 5.396682 -2.239352 -0.337315 -4.655628 24.253604 34.381435 -15.954720 -0.378398 -6.121181 10.921906 -9.028680 20.175115 21.197412 16.339598 3.201762 2.414715 -63.836659 -23.158449 -33.243792 -15.553701 14.949628 46.833188 13.681407 20.003926 12.827701 -9.470887 10.870880 -0.321754 18.692748 -52.158430 10.029500 14.966117 -11.422373 -19.903936 -23.864084 63.058228 5.940011 7.636018 -43.450374 0.328071 -7.579462 5.068473 5.375194
-0.846199 0.669485 -0.513587 -94.710542 -2.934248 121.916323 19.070339 -5.984364 74.560847 -9.344545 -22.983272 -12.156361 -2.393040 -5.678922 -8.532930 -0.681668 -2.422826 -8.532771 -12.446685 14.067752 1.328321 -0.506382 1.518393 13.413914 -0.699752 -0.282418 -2.731151 25.693336 33.738185 -6.315877 -1.213370 -0.697066 0.118884 -6.516669 30.262640 18.506507 13.970044 2.765283 2.169021 -61.351567 -20.436910 -28.647046 -16.236452 14.263568 48.059831 13.440332 21.435142 13.471026 -7.117834 10.287318 0.905392 23.269372 -57.481259 13.837905 15.791571 -17.038333 -13.026483 -22.662370 58.746450 2.794549 9.112734 -41.242739 0.278881 -3.526173 6.831800 6.186597
